<?xml version="1.0" encoding="UTF-8" standalone="no"?>
<svg width="120px" height="120px" viewBox="0 0 120 120" version="1.1" xmlns="http://www.w3.org/2000/svg"
     xmlns:xlink="http://www.w3.org/1999/xlink">
    <g stroke="none" stroke-width="1" fill="none" fill-rule="evenodd">
        <path d="M120,108 C120,114.6 114.6,120 108,120 L12,120 C5.4,120 0,114.6 0,108 L0,12 C0,5.4 5.4,0 12,0 L108,0 C114.6,0 120,5.4 120,12 L120,108 L120,108 Z"
              id="Shape" fill="#0592cb"/>
        <path d="M92.6,45.4c2.3,1.6,1.6,6.1,1.6,11.2c0,5.2,0.8,9.4-1.6,11.2c2.3,1.7,1.6,6.3,1.6,11.4c0,3.6,0.4,6.9,0,8.7
		c-0.3,1.6-2.7,3.3-3.9,4.6c-1.8,1.8-4.6,5.5-7.9,5.5c-2.4,0.1-4.1-2.7-6.2-2.7c-2.3,0-4.2,3.8-6.6,2.7c-0.1-1.5,1.4-2.4,2.3-3.3
		c4.7-4.6,8.8-9.2,13.9-14c2.9-2.9,6.6-4.6,5.4-10.9c-2.6,1.7-4.9,4.3-7.3,6.8c-4.4,4.8-9.3,9.7-14,14.5c-2.1,2.1-6.5,7.5-10.3,6.8
		c-1.6-0.3-2.9-2.3-4.5-2.5c-2.9-0.4-4.1,3.3-7,2.9c-0.9-1.6,1-2.5,1.9-3.3c13.7-13.8,27.9-28.2,41.3-42.4c0-1.8,0-3.6,0-5.4
		C77.3,60.6,60.8,77.3,46.2,92c-2,2-4.6,5.5-7,5.8c-2.9,0.4-5-2.7-7.5-2.5c-1.9,0.2-3.6,3.5-6,2.9c-0.4-2.3,2.1-3.5,3.3-4.8
		c20.5-20.8,41.9-41.9,62.2-63.2c-0.3-1.9,0.3-3.7,0-5.2c-0.3-1.4-1.5-1.6-1.6-2.9c2.4-0.5,3.8,1.7,4.8,3.3c-0.8,5.2,1,12.8,0,17.6
		C94,44,93.2,44.6,92.6,45.4z" id="Path-1" fill="#FFFFFF"/>
    </g>
</svg>